<svg width="25" height="25" viewBox="0 0 25 25" fill="none" xmlns="http://www.w3.org/2000/svg">
<path d="M6.25 6.38281V16.4062C6.24985 17.398 6.62693 18.3527 7.30475 19.0766C7.98257 19.8006 8.91039 20.2396 9.9 20.3047L10.1563 20.3125H17.0531C16.8916 20.7694 16.5924 21.165 16.1967 21.4448C15.801 21.7246 15.3284 21.8749 14.8438 21.875H9.375C8.1318 21.875 6.93951 21.3811 6.06044 20.5021C5.18136 19.623 4.6875 18.4307 4.6875 17.1875V8.59375C4.68725 8.10887 4.83739 7.63584 5.11723 7.23986C5.39708 6.84388 5.79285 6.54444 6.25 6.38281ZM17.9688 3.125C18.5904 3.125 19.1865 3.37193 19.626 3.81147C20.0656 4.25101 20.3125 4.84715 20.3125 5.46875V16.4062C20.3125 17.0279 20.0656 17.624 19.626 18.0635C19.1865 18.5031 18.5904 18.75 17.9688 18.75H10.1563C9.53465 18.75 8.93851 18.5031 8.49897 18.0635C8.05943 17.624 7.8125 17.0279 7.8125 16.4062V5.46875C7.8125 4.84715 8.05943 4.25101 8.49897 3.81147C8.93851 3.37193 9.53465 3.125 10.1563 3.125H17.9688ZM17.9688 4.6875H10.1563C9.94905 4.6875 9.75034 4.76981 9.60382 4.91632C9.45731 5.06284 9.375 5.26155 9.375 5.46875V16.4062C9.375 16.6135 9.45731 16.8122 9.60382 16.9587C9.75034 17.1052 9.94905 17.1875 10.1563 17.1875H17.9688C18.176 17.1875 18.3747 17.1052 18.5212 16.9587C18.6677 16.8122 18.75 16.6135 18.75 16.4062V5.46875C18.75 5.26155 18.6677 5.06284 18.5212 4.91632C18.3747 4.76981 18.176 4.6875 17.9688 4.6875Z" fill="white"/>
</svg>
