<svg width="223" height="72" viewBox="0 0 223 72" fill="none" xmlns="http://www.w3.org/2000/svg">
<path d="M15.168 53.336C12.704 53.336 10.496 52.936 8.544 52.136C6.592 51.336 5.024 50.152 3.84 48.584C2.688 47.016 2.08 45.128 2.016 42.92H10.752C10.88 44.168 11.312 45.128 12.048 45.8C12.784 46.44 13.744 46.76 14.928 46.76C16.144 46.76 17.104 46.488 17.808 45.944C18.512 45.368 18.864 44.584 18.864 43.592C18.864 42.76 18.576 42.072 18 41.528C17.456 40.984 16.768 40.536 15.936 40.184C15.136 39.832 13.984 39.432 12.48 38.984C10.304 38.312 8.528 37.64 7.152 36.968C5.776 36.296 4.592 35.304 3.6 33.992C2.608 32.68 2.112 30.968 2.112 28.856C2.112 25.72 3.248 23.272 5.52 21.512C7.792 19.72 10.752 18.824 14.4 18.824C18.112 18.824 21.104 19.72 23.376 21.512C25.648 23.272 26.864 25.736 27.024 28.904H18.144C18.08 27.816 17.68 26.968 16.944 26.36C16.208 25.72 15.264 25.4 14.112 25.4C13.12 25.4 12.32 25.672 11.712 26.216C11.104 26.728 10.8 27.48 10.8 28.472C10.8 29.56 11.312 30.408 12.336 31.016C13.36 31.624 14.96 32.28 17.136 32.984C19.312 33.72 21.072 34.424 22.416 35.096C23.792 35.768 24.976 36.744 25.968 38.024C26.96 39.304 27.456 40.952 27.456 42.968C27.456 44.888 26.96 46.632 25.968 48.2C25.008 49.768 23.6 51.016 21.744 51.944C19.888 52.872 17.696 53.336 15.168 53.336ZM30.8753 39.56C30.8753 36.808 31.3873 34.392 32.4113 32.312C33.4673 30.232 34.8913 28.632 36.6833 27.512C38.4753 26.392 40.4753 25.832 42.6833 25.832C44.5713 25.832 46.2193 26.216 47.6273 26.984C49.0673 27.752 50.1713 28.76 50.9393 30.008V26.216H59.1473V53H50.9393V49.208C50.1393 50.456 49.0193 51.464 47.5793 52.232C46.1713 53 44.5233 53.384 42.6353 53.384C40.4593 53.384 38.4753 52.824 36.6833 51.704C34.8913 50.552 33.4673 48.936 32.4113 46.856C31.3873 44.744 30.8753 42.312 30.8753 39.56ZM50.9393 39.608C50.9393 37.56 50.3633 35.944 49.2113 34.76C48.0913 33.576 46.7153 32.984 45.0833 32.984C43.4513 32.984 42.0593 33.576 40.9073 34.76C39.7873 35.912 39.2273 37.512 39.2273 39.56C39.2273 41.608 39.7873 43.24 40.9073 44.456C42.0593 45.64 43.4513 46.232 45.0833 46.232C46.7153 46.232 48.0913 45.64 49.2113 44.456C50.3633 43.272 50.9393 41.656 50.9393 39.608ZM78.5254 33.032H74.1094V53H65.9014V33.032H62.9254V26.216H65.9014V25.448C65.9014 22.152 66.8454 19.656 68.7334 17.96C70.6214 16.232 73.3894 15.368 77.0374 15.368C77.6454 15.368 78.0934 15.384 78.3814 15.416V22.376C76.8134 22.28 75.7094 22.504 75.0694 23.048C74.4294 23.592 74.1094 24.568 74.1094 25.976V26.216H78.5254V33.032ZM107.63 39.176C107.63 39.944 107.582 40.744 107.486 41.576H88.9103C89.0383 43.24 89.5663 44.52 90.4943 45.416C91.4543 46.28 92.6223 46.712 93.9983 46.712C96.0463 46.712 97.4703 45.848 98.2703 44.12H107.006C106.558 45.88 105.742 47.464 104.558 48.872C103.406 50.28 101.95 51.384 100.19 52.184C98.4303 52.984 96.4623 53.384 94.2863 53.384C91.6623 53.384 89.3263 52.824 87.2783 51.704C85.2303 50.584 83.6303 48.984 82.4783 46.904C81.3263 44.824 80.7503 42.392 80.7503 39.608C80.7503 36.824 81.3103 34.392 82.4303 32.312C83.5823 30.232 85.1823 28.632 87.2303 27.512C89.2783 26.392 91.6303 25.832 94.2863 25.832C96.8783 25.832 99.1823 26.376 101.198 27.464C103.214 28.552 104.782 30.104 105.902 32.12C107.054 34.136 107.63 36.488 107.63 39.176ZM99.2303 37.016C99.2303 35.608 98.7503 34.488 97.7903 33.656C96.8303 32.824 95.6303 32.408 94.1903 32.408C92.8143 32.408 91.6463 32.808 90.6863 33.608C89.7583 34.408 89.1823 35.544 88.9583 37.016H99.2303ZM137.64 30.152C137.64 32.104 137.192 33.896 136.296 35.528C135.4 37.128 134.024 38.424 132.168 39.416C130.312 40.408 128.008 40.904 125.256 40.904H120.168V53H111.96V19.304H125.256C127.944 19.304 130.216 19.768 132.072 20.696C133.928 21.624 135.32 22.904 136.248 24.536C137.176 26.168 137.64 28.04 137.64 30.152ZM124.632 34.376C126.2 34.376 127.368 34.008 128.136 33.272C128.904 32.536 129.288 31.496 129.288 30.152C129.288 28.808 128.904 27.768 128.136 27.032C127.368 26.296 126.2 25.928 124.632 25.928H120.168V34.376H124.632ZM183.325 53.384C180.989 53.384 178.909 52.984 177.085 52.184C175.261 51.384 173.821 50.296 172.765 48.92C171.709 47.512 171.117 45.944 170.989 44.216H179.101C179.197 45.144 179.629 45.896 180.397 46.472C181.165 47.048 182.109 47.336 183.229 47.336C184.253 47.336 185.037 47.144 185.581 46.76C186.157 46.344 186.445 45.816 186.445 45.176C186.445 44.408 186.045 43.848 185.245 43.496C184.445 43.112 183.149 42.696 181.357 42.248C179.437 41.8 177.837 41.336 176.557 40.856C175.277 40.344 174.173 39.56 173.245 38.504C172.317 37.416 171.853 35.96 171.853 34.136C171.853 32.6 172.269 31.208 173.101 29.96C173.965 28.68 175.213 27.672 176.845 26.936C178.509 26.2 180.477 25.832 182.749 25.832C186.109 25.832 188.749 26.664 190.669 28.328C192.621 29.992 193.741 32.2 194.029 34.952H186.445C186.317 34.024 185.901 33.288 185.197 32.744C184.525 32.2 183.629 31.928 182.509 31.928C181.549 31.928 180.813 32.12 180.301 32.504C179.789 32.856 179.533 33.352 179.533 33.992C179.533 34.76 179.933 35.336 180.733 35.72C181.565 36.104 182.845 36.488 184.573 36.872C186.557 37.384 188.173 37.896 189.421 38.408C190.669 38.888 191.757 39.688 192.685 40.808C193.645 41.896 194.141 43.368 194.173 45.224C194.173 46.792 193.725 48.2 192.829 49.448C191.965 50.664 190.701 51.624 189.037 52.328C187.405 53.032 185.501 53.384 183.325 53.384ZM210.091 53.384C207.755 53.384 205.675 52.984 203.851 52.184C202.027 51.384 200.587 50.296 199.531 48.92C198.475 47.512 197.883 45.944 197.755 44.216H205.867C205.963 45.144 206.395 45.896 207.163 46.472C207.931 47.048 208.875 47.336 209.995 47.336C211.019 47.336 211.803 47.144 212.347 46.76C212.923 46.344 213.211 45.816 213.211 45.176C213.211 44.408 212.811 43.848 212.011 43.496C211.211 43.112 209.915 42.696 208.123 42.248C206.203 41.8 204.603 41.336 203.323 40.856C202.043 40.344 200.939 39.56 200.011 38.504C199.083 37.416 198.619 35.96 198.619 34.136C198.619 32.6 199.035 31.208 199.867 29.96C200.731 28.68 201.979 27.672 203.611 26.936C205.275 26.2 207.243 25.832 209.515 25.832C212.875 25.832 215.515 26.664 217.435 28.328C219.387 29.992 220.507 32.2 220.795 34.952H213.211C213.083 34.024 212.667 33.288 211.963 32.744C211.291 32.2 210.395 31.928 209.275 31.928C208.315 31.928 207.579 32.12 207.067 32.504C206.555 32.856 206.299 33.352 206.299 33.992C206.299 34.76 206.699 35.336 207.499 35.72C208.331 36.104 209.611 36.488 211.339 36.872C213.323 37.384 214.939 37.896 216.187 38.408C217.435 38.888 218.523 39.688 219.451 40.808C220.411 41.896 220.907 43.368 220.939 45.224C220.939 46.792 220.491 48.2 219.595 49.448C218.731 50.664 217.467 51.624 215.803 52.328C214.171 53.032 212.267 53.384 210.091 53.384Z" fill="black"/>
<path d="M154 37.6666C153.493 37.6607 152.996 37.8104 152.576 38.0955C152.156 38.3806 151.834 38.7875 151.652 39.2613C151.47 39.7352 151.438 40.2533 151.56 40.7459C151.682 41.2385 151.952 41.682 152.333 42.0166V44.3333C152.333 44.7753 152.509 45.1993 152.822 45.5118C153.134 45.8244 153.558 46 154 46C154.442 46 154.866 45.8244 155.179 45.5118C155.491 45.1993 155.667 44.7753 155.667 44.3333V42.0166C156.048 41.682 156.318 41.2385 156.44 40.7459C156.562 40.2533 156.53 39.7352 156.348 39.2613C156.166 38.7875 155.844 38.3806 155.424 38.0955C155.004 37.8104 154.507 37.6607 154 37.6666ZM162.333 31V27.6666C162.333 25.4565 161.455 23.3369 159.893 21.7741C158.33 20.2113 156.21 19.3333 154 19.3333C151.79 19.3333 149.67 20.2113 148.107 21.7741C146.545 23.3369 145.667 25.4565 145.667 27.6666V31C144.341 31 143.069 31.5268 142.131 32.4644C141.193 33.4021 140.667 34.6739 140.667 36V47.6666C140.667 48.9927 141.193 50.2645 142.131 51.2022C143.069 52.1399 144.341 52.6666 145.667 52.6666H162.333C163.659 52.6666 164.931 52.1399 165.869 51.2022C166.807 50.2645 167.333 48.9927 167.333 47.6666V36C167.333 34.6739 166.807 33.4021 165.869 32.4644C164.931 31.5268 163.659 31 162.333 31ZM149 27.6666C149 26.3406 149.527 25.0688 150.464 24.1311C151.402 23.1934 152.674 22.6666 154 22.6666C155.326 22.6666 156.598 23.1934 157.536 24.1311C158.473 25.0688 159 26.3406 159 27.6666V31H149V27.6666ZM164 47.6666C164 48.1087 163.824 48.5326 163.512 48.8452C163.199 49.1577 162.775 49.3333 162.333 49.3333H145.667C145.225 49.3333 144.801 49.1577 144.488 48.8452C144.176 48.5326 144 48.1087 144 47.6666V36C144 35.558 144.176 35.134 144.488 34.8215C144.801 34.5089 145.225 34.3333 145.667 34.3333H162.333C162.775 34.3333 163.199 34.5089 163.512 34.8215C163.824 35.134 164 35.558 164 36V47.6666Z" fill="white"/>
</svg>
