<svg width="48" height="48" viewBox="0 0 48 48" fill="none" xmlns="http://www.w3.org/2000/svg">
<rect width="48" height="48" rx="10" fill="#016FB9"/>
<path d="M24.3333 25.3333C23.8259 25.3274 23.3289 25.4771 22.9091 25.7622C22.4893 26.0473 22.1669 26.4541 21.9854 26.928C21.8038 27.4019 21.7718 27.92 21.8936 28.4126C22.0154 28.9052 22.2852 29.3487 22.6667 29.6833V32C22.6667 32.442 22.8423 32.866 23.1548 33.1785C23.4674 33.4911 23.8913 33.6667 24.3333 33.6667C24.7754 33.6667 25.1993 33.4911 25.5118 33.1785C25.8244 32.866 26 32.442 26 32V29.6833C26.3815 29.3487 26.6513 28.9052 26.7731 28.4126C26.8949 27.92 26.8629 27.4019 26.6813 26.928C26.4998 26.4541 26.1774 26.0473 25.7576 25.7622C25.3378 25.4771 24.8408 25.3274 24.3333 25.3333ZM32.6667 18.6667V15.3333C32.6667 13.1232 31.7887 11.0036 30.2259 9.44078C28.6631 7.87797 26.5435 7 24.3333 7C22.1232 7 20.0036 7.87797 18.4408 9.44078C16.878 11.0036 16 13.1232 16 15.3333V18.6667C14.6739 18.6667 13.4021 19.1935 12.4645 20.1311C11.5268 21.0688 11 22.3406 11 23.6667V35.3333C11 36.6594 11.5268 37.9312 12.4645 38.8689C13.4021 39.8065 14.6739 40.3333 16 40.3333H32.6667C33.9927 40.3333 35.2645 39.8065 36.2022 38.8689C37.1399 37.9312 37.6667 36.6594 37.6667 35.3333V23.6667C37.6667 22.3406 37.1399 21.0688 36.2022 20.1311C35.2645 19.1935 33.9927 18.6667 32.6667 18.6667ZM19.3333 15.3333C19.3333 14.0073 19.8601 12.7355 20.7978 11.7978C21.7355 10.8601 23.0073 10.3333 24.3333 10.3333C25.6594 10.3333 26.9312 10.8601 27.8689 11.7978C28.8065 12.7355 29.3333 14.0073 29.3333 15.3333V18.6667H19.3333V15.3333ZM34.3333 35.3333C34.3333 35.7754 34.1577 36.1993 33.8452 36.5118C33.5326 36.8244 33.1087 37 32.6667 37H16C15.558 37 15.134 36.8244 14.8215 36.5118C14.5089 36.1993 14.3333 35.7754 14.3333 35.3333V23.6667C14.3333 23.2246 14.5089 22.8007 14.8215 22.4882C15.134 22.1756 15.558 22 16 22H32.6667C33.1087 22 33.5326 22.1756 33.8452 22.4882C34.1577 22.8007 34.3333 23.2246 34.3333 23.6667V35.3333Z" fill="white"/>
</svg>
